<?xml version="1.0" encoding="iso-8859-1"?>
<!-- Generator: Adobe Illustrator 16.0.0, SVG Export Plug-In . SVG Version: 6.00 Build 0)  -->
<!DOCTYPE svg PUBLIC "-//W3C//DTD SVG 1.1//EN" "http://www.w3.org/Graphics/SVG/1.1/DTD/svg11.dtd">
<svg version="1.1" id="Capa_1" xmlns="http://www.w3.org/2000/svg" xmlns:xlink="http://www.w3.org/1999/xlink" x="0px" y="0px"
	 width="79.54px" height="79.54px" viewBox="0 0 79.54 79.54" style="enable-background:new 0 0 79.54 79.54;" xml:space="preserve"
	>
<g>
	<path style="fill:#23ffd8" d="M54.877,44.304c0-1.211,5.193-17.29-4.914-22.151C38.319,16.549,35.096,12.083,35.197,4.919
		c-0.01,0.293-7.042,11.63-2.465,17.233c7.115,8.67,4.109,15.384,0,14.768c-6.9-1.033-6.066-10.038-4.917-12.306
		c-3.609-0.383-7.783,1.861-9.852,4.919c-6.208,9.228,7.25,18.054,2.465,24.614c-3.643,4.997-9.862-4.842-9.841-4.919
		C3.196,87.8,56.86,88.778,59.812,56.612c0.88-9.646,9.563-14.892,9.839-14.766C60.401,37.572,54.877,44.609,54.877,44.304z
		 M37.657,71.375c-12.899,0.481-11.579-9.196-9.841-12.303c2.195-3.967,7.759-4.749,4.922-9.849
		c0.036,0.072,6.041,0.979,9.841,4.919C48.414,60.17,47.752,71.003,37.657,71.375z M45.043,12.306
		c-1.506-1.615-2.464-3.557-2.464-4.924c0-2.561,2.092-5.023,4.924-7.381c0.285,2.053-1.228,5.126,0,7.381
		c0.953,1.67,2.465,3.557,2.465,4.924c0,1.831-0.684,3.5-2.465,4.922C47.233,16.544,46.763,14.294,45.043,12.306z"/>
</g>
<g>
</g>
<g>
</g>
<g>
</g>
<g>
</g>
<g>
</g>
<g>
</g>
<g>
</g>
<g>
</g>
<g>
</g>
<g>
</g>
<g>
</g>
<g>
</g>
<g>
</g>
<g>
</g>
<g>
</g>
</svg>
