<?xml version="1.0" encoding="iso-8859-1"?>
<!-- Generator: Adobe Illustrator 18.1.1, SVG Export Plug-In . SVG Version: 6.00 Build 0)  -->
<svg version="1.1" id="Capa_1" xmlns="http://www.w3.org/2000/svg" xmlns:xlink="http://www.w3.org/1999/xlink" x="0px" y="0px"
	 viewBox="0 0 246 246" style="enable-background:new 0 0 246 246;" xml:space="preserve">
<g>
	<path style="fill:#ffa535;" d="M208.25,121.197c5.569,33.009-8.379,39.663-8.379,39.663s12.643-26.81-4.235-52.968
		c-6.686-10.347-10.762-25.617-8.912-31.533c-8.16,6.405-11.451,24.025-11.451,24.025s-8.953-18.109-7.469-42.256l-21.627,34.287
		c0,0,0.72-27.077-10.103-39.023C125.233,41.451,105.597,31.066,125.233,0c0,0-50.479,29.229-29.413,81.881
		c16.734,41.82-24.034,10.535-9.133-25.317c0,0-28.382,7.979-18.255,53.393c0,0-16.847-4.805-15.524-24.71
		c0,0-13.538,30.28,0.679,61.361c0,0-15.688-0.771-13.463-27.874C9.441,163.549,29.065,246,121.226,246
		C204.429,245.999,239.007,183.811,208.25,121.197z"/>
</g>
<g>
</g>
<g>
</g>
<g>
</g>
<g>
</g>
<g>
</g>
<g>
</g>
<g>
</g>
<g>
</g>
<g>
</g>
<g>
</g>
<g>
</g>
<g>
</g>
<g>
</g>
<g>
</g>
<g>
</g>
</svg>
